<svg xmlns="http://www.w3.org/2000/svg" width="170" height="24" fill="none" viewBox="0 0 170 24">
    <path fill="#fff" d="M72.152 8.96c-2.08 0-2.814 1.501-2.814 1.501V9.123h-1.55v8.88h1.55v-5.798c0-.77.734-1.906 2.365-1.906 1.51 0 2.366.933 2.366 2.595v5.15h1.55V12.61c0-2.23-1.346-3.65-3.467-3.65zM63.832 6.163h-1.55v1.784c0 .649-.53 1.176-1.183 1.176h-1.713l-2.855 6.812-2.855-6.812h-1.591l3.63 8.718-.938 2.23h-1.999v1.338h1.55c.898 0 1.713-.527 2.04-1.338l4.038-9.61h1.876v5.312c0 1.378.816 2.27 2.08 2.27h2.12v-1.338h-2.691v-6.244h2.692V9.123H63.79v-2.96h.04zM49.597 15.408c0 .892-1.142 1.622-2.692 1.622-1.264 0-2.04-.487-2.04-1.379v-.365c0-.851.817-1.338 2.652-1.338h2.12v1.46h-.04zm1.51-3.244c0-1.987-1.428-3.244-3.712-3.244-2.121 0-3.63 1.298-3.875 3.406h1.509c.326-1.54 1.387-2.108 2.366-2.108 1.386 0 2.243.77 2.243 2.108v.609h-2.121c-2.978 0-4.242.932-4.242 2.554 0 1.662 1.305 2.676 3.386 2.676 1.672 0 2.61-.608 3.058-1.581.123.81.572 1.419 1.754 1.419h1.02v-1.338h-1.346l-.04-4.5zM40.787 5.514h-1.55v10.218c0 1.379.816 2.27 2.08 2.27h.775v-1.337h-1.305V5.515zM30.264 5.514h-1.55v12.489h1.55V5.514zM38.177 5.514H36.3l-4.772 4.704c-.448.446-.489 1.135-.081 1.622l4.935 6.163h1.958l-5.67-7.015 5.507-5.474zM12.073 11.232l7.831 7.744c2.08-2.23 3.06-5.028 3.06-7.744 0-2.92-1.102-5.636-3.06-7.785l-7.831 7.785zM11.502 11.8l-7.75 7.703 7.75 3.163 7.708-3.163-7.708-7.704zM11.828 0L4.446 17.678l6.77-6.73 7.995-7.907L11.828 0zM0 11.272c0 2.636.938 5.474 3.059 7.785L10.768.567 0 11.273zM89.038 14.03h-4.976l-1.427 3.932h-1.306l4.528-12.326h1.305l4.527 12.326h-1.305l-1.346-3.933zM86.51 6.892s-.244 1.014-.49 1.581l-1.671 4.46h4.241l-1.631-4.46c-.122-.567-.408-1.58-.449-1.58zM93.77 5.636h4.282c2.202 0 3.834 1.42 3.834 3.73 0 2.312-1.591 3.771-3.834 3.771h-3.06v4.825H93.77V5.636zm4.119 6.366c1.672 0 2.733-1.014 2.733-2.676 0-1.663-1.061-2.636-2.692-2.636h-2.937v5.312h2.896zM104.292 5.636h1.224v12.326h-1.224V5.636zM112.409 15.651s1.305 1.338 3.222 1.338c1.346 0 2.447-.81 2.447-2.149 0-3.081-6.199-2.31-6.199-6.122 0-1.784 1.55-3.325 3.875-3.325 2.161 0 3.303 1.176 3.303 1.176l-.612 1.013s-1.101-1.054-2.732-1.054c-1.591 0-2.611 1.014-2.611 2.109 0 2.919 6.2 2.067 6.2 6.122 0 1.825-1.428 3.325-3.752 3.325-2.529 0-3.916-1.581-3.916-1.581l.775-.852zM125.461 8.92c2.447 0 3.712 1.866 3.712 4.055 0 .203-.041.608-.041.608h-6.771c.041 2.271 1.591 3.487 3.426 3.487 1.632 0 2.692-1.054 2.692-1.054l.53.892s-1.305 1.217-3.263 1.217c-2.651 0-4.649-1.906-4.649-4.623 0-2.838 1.998-4.582 4.364-4.582zm2.488 3.69c-.082-1.824-1.183-2.676-2.529-2.676-1.468 0-2.773.933-3.059 2.676h5.588zM131.456 9.123h1.183v1.54c0 .366-.041.69-.041.69h.041c.408-1.338 1.428-2.352 2.814-2.352.245 0 .49.041.49.041v1.176s-.204-.04-.449-.04c-1.264 0-2.202.972-2.569 2.27-.164.568-.245 1.135-.245 1.703v3.73h-1.183V9.123h-.041zM136.514 9.123h1.264l2.448 6.447c.163.446.285 1.054.285 1.054h.041s.122-.608.326-1.054l2.447-6.447h1.265l-3.386 8.799h-1.305l-3.385-8.799zM146.262 5.636h1.265v1.5h-1.265v-1.5zm0 3.487h1.183v8.799h-1.183V9.123zM154.379 8.92c2.162 0 3.222 1.257 3.222 1.257l-.612.892s-.979-1.054-2.569-1.054c-1.958 0-3.467 1.42-3.467 3.528 0 2.068 1.55 3.527 3.467 3.527 1.794 0 2.855-1.257 2.855-1.257l.53.933s-1.183 1.379-3.467 1.379c-2.61 0-4.65-1.866-4.65-4.623.041-2.676 2.121-4.582 4.691-4.582zM163.801 8.92c2.447 0 3.711 1.866 3.711 4.055 0 .203-.041.608-.041.608h-6.811c.041 2.271 1.591 3.487 3.426 3.487 1.631 0 2.692-1.054 2.692-1.054l.53.892s-1.305 1.217-3.263 1.217c-2.651 0-4.649-1.906-4.649-4.623.04-2.838 1.998-4.582 4.405-4.582zm2.488 3.69c-.082-1.824-1.183-2.676-2.529-2.676-1.469 0-2.774.933-3.059 2.676h5.588z"/>
</svg>
